<?xml version="1.0" standalone="no"?>
<!DOCTYPE svg PUBLIC "-//W3C//DTD SVG 20010904//EN"
 "http://www.w3.org/TR/2001/REC-SVG-20010904/DTD/svg10.dtd">
<svg version="1.0" xmlns="http://www.w3.org/2000/svg"
 width="233.000000pt" height="190.000000pt" viewBox="0 0 233.000000 190.000000"
 preserveAspectRatio="xMidYMid meet">

<g transform="translate(0.000000,190.000000) scale(0.100000,-0.100000)"
fill="#000000" stroke="none">
<path d="M1120 1610 c-8 -5 -23 -10 -33 -10 -21 0 -36 -11 -92 -67 -123 -123
-83 -330 80 -408 53 -25 165 -26 216 -1 158 76 199 284 82 412 -30 34 -59 51
-113 71 -41 15 -119 17 -140 3z m160 -108 c35 -26 68 -78 76 -119 16 -85 -63
-182 -155 -191 -131 -12 -229 120 -175 234 21 45 66 87 101 96 44 11 125 0
153 -20z"/>
<path d="M675 1370 c-3 -5 -14 -10 -24 -10 -31 0 -96 -72 -110 -122 -25 -89 6
-168 86 -218 161 -102 354 71 274 246 -18 38 -54 72 -110 102 -28 14 -107 16
-116 2z m128 -121 c53 -57 26 -151 -48 -165 -52 -9 -88 3 -112 39 -30 44 -29
88 2 126 42 49 111 50 158 0z"/>
<path d="M1550 1353 c-72 -40 -95 -83 -95 -174 0 -59 4 -79 18 -93 9 -10 21
-26 27 -36 15 -28 94 -60 148 -60 115 0 213 126 183 236 -16 57 -52 101 -104
129 -62 32 -117 31 -177 -2z m156 -88 c28 -18 48 -68 40 -101 -4 -15 -20 -39
-36 -55 -65 -65 -170 -20 -170 74 0 88 87 131 166 82z"/>
<path d="M1013 1070 c-50 -10 -87 -33 -128 -76 l-30 -32 -140 -4 c-137 -3
-141 -4 -181 -33 -23 -16 -55 -50 -70 -75 -29 -45 -29 -45 -29 -215 0 -191 5
-206 75 -242 32 -17 83 -18 655 -21 683 -3 685 -3 736 56 l29 33 0 170 c0 150
-2 174 -20 209 -22 42 -67 90 -87 90 -6 0 -13 6 -15 13 -4 9 -46 13 -156 15
-84 2 -152 7 -152 10 0 17 -50 62 -90 83 -40 21 -59 24 -200 26 -85 1 -174 -2
-197 -7z m365 -101 c13 -8 33 -30 45 -49 20 -33 22 -49 25 -242 l3 -208 -265
0 -266 0 0 200 c0 221 6 252 57 288 39 27 64 31 233 28 106 -2 151 -6 168 -17z
m-548 -299 l0 -200 -149 0 c-127 0 -150 2 -155 16 -3 9 -6 76 -6 150 0 147 8
176 57 213 24 18 43 20 141 21 l112 0 0 -200z m947 187 c12 -7 32 -25 45 -42
21 -27 23 -41 26 -166 3 -89 0 -144 -7 -158 -11 -20 -19 -21 -161 -21 l-150 0
0 193 c0 107 3 197 7 200 12 12 217 7 240 -6z"/>
</g>
</svg>
