<?xml version="1.0" standalone="no"?>
<!DOCTYPE svg PUBLIC "-//W3C//DTD SVG 20010904//EN"
 "http://www.w3.org/TR/2001/REC-SVG-20010904/DTD/svg10.dtd">
<svg version="1.0" xmlns="http://www.w3.org/2000/svg"
 width="222.000000pt" height="162.000000pt" viewBox="0 0 222.000000 162.000000"
 preserveAspectRatio="xMidYMid meet">

<g transform="translate(0.000000,162.000000) scale(0.100000,-0.100000)"
fill="#000000" stroke="none">
<path d="M885 1341 c-85 -22 -154 -80 -199 -165 -22 -40 -26 -62 -26 -126 0
-67 4 -86 30 -134 16 -31 37 -64 46 -73 16 -16 15 -18 -7 -33 -129 -83 -193
-205 -205 -385 -6 -88 -4 -108 10 -130 l16 -25 579 0 c497 0 580 2 591 15 8
10 11 53 8 147 -3 132 -4 133 -42 205 -35 67 -97 136 -155 173 -20 14 -22 18
-10 31 50 53 93 165 84 216 -20 109 -30 134 -72 182 -64 73 -137 106 -233 106
-57 -1 -86 -6 -122 -24 l-48 -23 -44 21 c-48 24 -153 35 -201 22z m175 -106
c15 -8 41 -30 57 -49 87 -99 62 -259 -51 -323 -165 -92 -357 51 -315 235 30
137 180 204 309 137z m370 -13 c139 -103 100 -330 -66 -378 -46 -13 -63 -13
-109 -3 -30 7 -55 16 -55 20 0 4 12 31 27 60 24 45 28 65 27 130 0 64 -5 87
-27 130 -15 28 -25 54 -22 57 2 3 26 10 52 17 54 14 129 0 173 -33z m-288
-487 c64 -53 92 -85 120 -134 27 -46 32 -66 36 -147 l5 -94 -348 0 -348 0 5
83 c7 127 57 221 152 284 43 29 43 29 199 28 138 -1 159 -4 179 -20z m321 14
c116 -60 186 -188 187 -336 l0 -53 -129 0 -128 0 -5 93 c-4 78 -10 103 -40
167 -19 41 -42 81 -51 89 -9 7 -17 19 -17 27 0 12 11 14 133 22 16 1 38 -3 50
-9z"/>
</g>
</svg>
